<svg id="Layer_1" data-name="Layer 1" xmlns="http://www.w3.org/2000/svg" viewBox="0 0 512 512"><title>danger_sign</title><path d="M14.18,457c-.13.05-.09,7.15-2.53-4.51-.9-3.08-1.85-6.08-2.93-9.07a48.58,48.58,0,0,0-4.56-5.86q-.73-3.41-1.29-6.9c-.1.32,7.51-11.85,21.35-13.36,14.34-.66,28.84,3.3,70.1,2.34,0,0,32.54.1,76.33,1.94.17,0,20.38.45,50.24.79s69.54,4,111.42,5.5C415.07,431.73,500,436.62,512,439.11c-.19.33-198.51-14.13-212.12-11,.72-1.6,190.83,11.26,205.29,15.35-.14.28-184.2-13.13-201.38-7.4.39-1.3,170.11,10.85,190.49,16.27,0,0-32.53-3.16-41.29-2.89l15.15,2-24.46-1.13-14.1-1.63s38.19,4.75,40.8,6.53c0,0,17.55-1.36-51.62-3.16,0,.32-40.81-5.15-112.18-5.91-35.74-.05-78.95,2.74-129,3.82-24.93.41-51.38,1-79.31,2.15q-20.95.88-43,2.07C40.18,455.42,23,453.64,14.18,457Z" fill="#e6e4e3"/><path d="M28.15,459.08c-.09.24,6.68,2-4.84.24-3.11-.27-6.24-.42-9.38-.48a38.35,38.35,0,0,0-7,2q-3.4-.4-6.79-1.06c.3.25-1.45-3,2.13-15.74,1.89-6.19,5.56-14.19,11.39-24,6-9.59,12.46-21,21.88-37-.27.08,13.51-26.61,33.16-59,.44.29,35.41-60,67.07-126.85,16-33.25,33.17-67.26,45.4-93.52,5.33-12.43,12.95-27.47,18.35-34.9,5.39-8.25,8.55-13.28,10-15.22.13.14-4.55,8.26-14,23.37a144.32,144.32,0,0,0-7.25,13.67c-2,4.35-4.12,8.93-6.3,13.69-4.29,9.52-9.48,19.61-14.5,29.87-20.79,41.42-41.68,83.78-43.41,89.19.1.06,19.32-37.89,39.67-77.52,10.46-19.85,20-39.27,28-55.81a187.81,187.81,0,0,1,19.38-29.43c.17.15-5.11,8-13.55,22.4-8.21,15.74-15.51,33.67-25.48,53.34-19.16,39-38.37,79.72-39.52,87.39.08.05,17.46-33.85,36.29-69.83,19.16-35.35,37.24-74.8,45.58-80.61-.33-.27-16.11,24.61-17.8,32.54,2.23-4,4.38-8.08,6.7-12-3,6.59-5.89,13.45-8.84,20.15-1.93,3.78-4.13,7.45-6.18,11.14.24.33,16.67-30.64,19.18-31.57-.09.36,4.74-15.64-19.85,41.92,0,0-12.18,33.08-39.15,91.38C134.78,255.94,122.2,291.77,102.1,332c-10,20.18-23.71,41.77-35.48,63.93-6.11,11.15-8.42,23.22-15.15,35.39C45.16,442.45,27.86,451.8,28.15,459.08Z" fill="#e6e4e3"/><path d="M211.75,69.52c-3.8,4.9-3.93-6.27,7.35-9.4l8.67-3.78a74.32,74.32,0,0,1,6.06-4.3l6.8-.83c1.94.15-4.95,5.18,48.2,64.86,0-.08,5.29,6,13.48,15.87,7.87,10,19.87,23,32.77,40.67.39-.7,45.22,64.52,83.15,133.56,39.61,68.16,85.92,135.07,91.4,145.2,0,0-27.22-38.92-53-80.69-26-41.61-50.8-85.77-54.63-90.46,0,0,21.95,40,46.28,80.53,24.1,40.74,51.18,81.62,54,88.3-.07.05-25.16-36.32-49.79-75.42-24.81-39-49.24-80.52-55.24-86.11,0,0,19.55,35.87,41.46,73.28,21.7,37.52,46.32,76.23,50.31,85.65-.08.06-16.77-26.63-21.9-33.26,2.35,4.33,4.73,8.61,7.19,12.87-4.54-6.42-8.83-13-13.25-19.51-2.24-4-4.57-7.88-6.75-11.88-.07,0,18.09,32.38,18.38,35.4.24-.18,10.79,13-27.1-41.88.09-.08-24.19-31.34-59.73-90.26-17.64-29.5-41.56-60.54-71.51-97.55C299.64,182,282.08,161.18,265.29,140,249.28,119.71,228,103,211.75,69.52Z" fill="#e6e4e3"/><path d="M236.43,321.28s2.68,2.05-1.71,2l-3.52.85c-.86.66-1.72,1.28-2.59,1.89l-2.54-.61c-.29-.17,1-4.06-8.89-58.42,0,0-1.16-5.4-2.63-14.72s-3.42-22.54-2.62-39.17a85.76,85.76,0,0,1,1.21-10.57,57.36,57.36,0,0,1,3.55-12.51c2-4.77,5.49-10.08,10.37-13.37a24.55,24.55,0,0,1,16.2-4.06c6.17.19,14,6.4,16.73,14.84,5.48,16.38,3.31,31.54,1.12,46.24-5.23,26.88-8.48,55.93-15.7,78-1.7,5.5-3.57,10.54-5.42,15-.47,1.09-.94,2.15-1.39,3.22l-.16.39-.08.2-.05.09,0,0c-3.19,1.35,7.1-2.91-7.15,3l-.77-.54c-.5-.4-1-.71-1.48-1.16a21.85,21.85,0,0,1-4.67-5.8c-4.62-8.86-3.83-15.58-3.94-17.81a45.32,45.32,0,0,0,.61,7c.66,4.29,2.82,12,8.76,16.68l1.09.81.28.17.13.13.07,0,0,0c3-1.24-6.64,2.8,6.7-2.77l.24-.58,1-2.34c.69-1.58,1.38-3.27,2-5,1.35-3.47,2.66-7.2,3.88-11.13,2.47-7.85,4.61-16.49,6.41-25.2,3.56-17.29,6-35.27,8.55-48,3-14.47,3.12-25.64,2.93-28.07a134.9,134.9,0,0,1-2.19,22c-2.67,12.1-5,27.95-8.21,44.74s-7.52,33.72-12.77,46.16c-.61,1.57-1.3,3-1.92,4.46l-.93,2.1-.06.13c4.59-1.92-6.26,2.64-5.15,2.15l0,0-.06,0-.24-.17-.47-.35-.9-.71a20.29,20.29,0,0,1-5.25-7.05,27,27,0,0,1-2.44-10.17,31.73,31.73,0,0,0,1.3,6.14,23.79,23.79,0,0,0,3.12,6.51,18.18,18.18,0,0,0,2.75,3.22,12.47,12.47,0,0,0,1.68,1.35l.44.34.22.15.11.07,0,0c-.94.4,8.27-3.45,4.38-1.83l0-.07.42-1c4.82-10.71,9.62-26.32,12.81-42.59s5.55-32.86,7.74-45.83c2.75-12.93,3.05-24,2.64-26.85a134.84,134.84,0,0,1-2.21,18.9c-2.42,10.77-4.68,25.27-7.53,40.38s-6.51,30.48-10.93,42.14c-1,3-2.21,5.63-3.23,8.11-.55,1.2-1.09,2.36-1.6,3.45-.52.59.11,1-1.35,1.69l-1.17-1a15.47,15.47,0,0,1-4.59-7.47c-.08-.35,1.83,5.93,6.19,7.59a118.68,118.68,0,0,0,5.6-14.66c-1.2,3.13-2.47,6.18-3.8,9.16q2.86-7.46,5.13-15.29c1-3,1.9-5.95,2.75-9,.4.25-8,24-9.66,24.91,0,0-.9,2.71.28.24,1-2.53,4.84-10,9.63-32.66.11.17,6.53-26.79,12.69-74.83a68.46,68.46,0,0,0-1.46-18.9c-1.41-6.29-5.28-12.22-10.76-13a17.69,17.69,0,0,0-15.72,5.47c-4.4,4.77-6.45,12.63-7.07,20.7-1.22,16.4,1.54,34.21,4.8,52.57C229.24,280.17,234.1,298.78,236.43,321.28Z" fill="#e6e4e3"/><path d="M243.68,354.24s2.51-1.38-.91,2.21l-2.56,3.16c-.54.88-1.1,1.77-1.68,2.62l-2.13,1.89c0,.09-.32-.4-1.76-1.53-.71-.5-1.74-1.12-2.55-.79s-1.89,1-3.4,3.95c.14-.4-2.23,6.31-1.53,12.25a5.4,5.4,0,0,0,1.81,3.85c.88.91,3.76,1.69,5.76,1.5s4.15-1.51,6-4.26c3.94-5.13,5.36-16,4.11-19.36-.52-1.14.24-.81-1-1.13a15.59,15.59,0,0,0-2.65.47c-.16.08,2.21-1.29,3.32-.81.42.28.17.17.62,1.3a19.14,19.14,0,0,1,.32,5.92,31.17,31.17,0,0,1-4.07,12.85,25.31,25.31,0,0,1-3.6,4.3,10.26,10.26,0,0,0,3.15-2.82,28.28,28.28,0,0,0,4.86-11.6c1.13-5,.31-10.18-.44-10.88-.53-1.32-3.38-.75-3.92-.87-.12.07,2.09-1.07,3.65-.35,1.28.13,2.67,4.12,2.26,9.47a36.63,36.63,0,0,1-3.78,13.84c-1.76,3.5-3.55,5.22-3.86,6.17-.1.43,6.53-4.47,8.87-15.42,1.19-5.07,1.46-11-.22-14.77s-5.17-3.66-6.17-3.94a8.3,8.3,0,0,1,3.49.32c1.84.61,3.14,2.71,3.64,3.55a8.39,8.39,0,0,0-1.84-3.22,9.4,9.4,0,0,1,3.1,5.1,19.54,19.54,0,0,1,.34,3.69,21.29,21.29,0,0,0-.54-5.17,15.28,15.28,0,0,0-2.79-5.53s-1.07-.36-.17.4c.66.5,4.69,3.14,5.07,13a48.66,48.66,0,0,1-1.15,7.85c-1.16,4.75-3.27,12.26-9.23,17.87a13.71,13.71,0,0,1-11.54,3.58c-4.28-.24-9.85-3.41-11.89-10.81-2-7.11-1.24-15.42,2-23.13,1.71-3.75,4.2-8,9-10C234.81,347,240.61,350.42,243.68,354.24Z" fill="#e6e4e3"/><polygon points="232.01 314.58 217.64 240.32 217.64 208.51 224.14 186.59 237.6 178.1 248.77 178.1 257.96 191.54 260.12 207.81 250.68 253.1 239.25 312.16 232.01 314.58" fill="#e6e4e3"/><polygon points="232.55 386.73 242.73 381.06 245.85 368.22 243.68 354.24 238.88 354.24 224.14 357.74 223.14 377.54 232.55 386.73" fill="#e6e4e3"/></svg>