<svg id="Layer_1" data-name="Layer 1" xmlns="http://www.w3.org/2000/svg" viewBox="0 0 512 512"><title>house</title><path d="M78.54,197.34s-8.58-1.62,5.85-1.52l11.55-.66,8.48-1.62,8.42.48s2.41,4.27,7.22,51.8a201.5,201.5,0,0,1,4.81,44.67s-2.49,186-7.56,199.93c0,0,7.25-116.6,5-124,0,0-6,111.52-10.54,120.06,0,0,6.8-108.14.91-117.78,0,0-6.25,99.57-12.11,111.62,0,0,2.35-19.1,1.63-24.22l-1.75,8.92.24-14.35,1.34-8.27s-4,22.42-6.05,24c0,0,2.43,10.22,1.51-30.26C97.44,436.17,111.63,340.36,78.54,197.34Z" fill="#e6e4e3"/><path d="M380.38,205.37s-8.57-1.59,5.86-1.49l11.55-.66,8.48-1.59,8.41.46s2.41,4.2,7.22,50.88a194.16,194.16,0,0,1,4.81,43.87s-2.49,182.68-7.57,196.4c0,0,7.26-114.54,5-121.75,0,0-6,109.53-10.55,117.93,0,0,6.81-106.24.92-115.7,0,0-6.24,97.8-12.1,109.65,0,0,2.34-18.78,1.62-23.78l-1.75,8.73.25-14.09,1.34-8.13s-4,22-6.07,23.58c0,0,2.46,10,1.53-29.73C399.3,440,413.48,345.86,380.38,205.37Z" fill="#e6e4e3"/><path d="M322.6,359.58s-4.28-.69,2.92-.64l5.78-.29,4.24-.69,4.21.2s1.2,1.83,3.61,22a73.37,73.37,0,0,1,2.4,19s-1.23,79-3.78,84.9c0,0,3.63-49.5,2.48-52.65,0,0-3,47.36-5.29,51,0,0,3.4-45.93.46-50,0,0-3.12,42.29-6.05,47.39,0,0,1.17-8.11.82-10.28l-.88,3.8.13-6.11.66-3.52s-2,9.53-3,10.2c0,0,1.22,4.34.77-12.86C332.06,461,339.15,420.31,322.6,359.58Z" fill="#e6e4e3"/><path d="M250.22,368.69s-.47,4.15-.45-2.83l-.19-5.59-.49-4.1.15-4.09s1.27-1.14,15.37-3.48a38.27,38.27,0,0,1,13.25-2.31s55.18,1.19,59.33,3.64c0,0-34.6-3.5-36.78-2.4,0,0,33.09,2.87,35.63,5.1,0,0-32.1-3.28-35-.44,0,0,29.54,3,33.12,5.86,0,0-5.66-1.14-7.19-.79l2.66.84L325.4,358l-2.45-.65s6.66,1.94,7.12,2.92c0,0,3-1.18-9-.72C321.09,359.55,292.67,352.69,250.22,368.69Z" fill="#e6e4e3"/><path d="M268.85,485.27s4.29.7-2.93.65l-5.76.28-4.25.69-4.22-.19s-1.21-1.83-3.62-22a73.39,73.39,0,0,1-2.4-19s1.25-79,3.8-84.89c0,0-3.63,49.52-2.49,52.65,0,0,3-47.37,5.27-51,0,0-3.4,45.93-.46,50,0,0,3.13-42.29,6.05-47.4,0,0-1.16,8.11-.8,10.28l.87-3.79-.13,6.08-.68,3.51s2-9.51,3-10.19c0,0-1.23-4.34-.77,12.85C259.39,383.85,252.29,424.53,268.85,485.27Z" fill="#e6e4e3"/><path d="M109,509.55s-1.61,8.31-1.51-5.65l-.65-11.18-1.61-8.21.47-8.13s4.23-2.34,51.17-7A202.11,202.11,0,0,1,201,464.73s183.75,2.42,197.55,7.33c0,0-115.21-7-122.47-4.8,0,0,110.17,5.76,118.63,10.2,0,0-106.86-6.58-116.37-.88,0,0,98.36,6,110.28,11.71,0,0-18.88-2.26-23.92-1.58l8.79,1.7-14.16-.22-8.19-1.31s22.17,3.89,23.71,5.87c0,0,10.12-2.37-29.9-1.47C345,491.27,250.35,477.53,109,509.55Z" fill="#e6e4e3"/><path d="M61.13,272.58s5.9,7-5.85-2.63l-9.92-7.14-8.07-4.28-6.58-6s1-5.07,30-46.9a216.14,216.14,0,0,1,27-39.49S218.81,16.65,232.66,8.66c0,0-86.83,90-90.05,97.47,0,0,82.23-86.7,92-90.62,0,0-80.61,83.41-82.47,95.14,0,0,74.19-76.78,87.34-82.71,0,0-15.17,14-18.12,18.61l7.62-6.06L218.79,52l-6.85,5.83s18.87-15.56,21.62-15.48c0,0,5.1-9.93-22.24,23.59C211.31,65.9,133.23,134.37,61.13,272.58Z" fill="#e6e4e3"/><path d="M229.5,26.46S221,31,233.34,21.14l9.37-8.54,6-7.2L256.26,0s5.26,1.93,44.81,38.75a236.2,236.2,0,0,1,37.44,34.38S475.19,231.91,481.28,247.21c0,0-80.82-103.47-88.28-108.09,0,0,78.15,98.25,80.6,108.64,0,0-74.91-96-87.11-100.1,0,0,69,88.39,73,102.61,0,0-12.25-17.75-16.69-21.57l5.14,8.74-10.49-12.27-5-7.92s13.33,21.72,12.75,24.44c0,0,9.74,7-21.29-26.6C423.85,215.09,364.48,124.41,229.5,26.46Z" fill="#e6e4e3"/><path d="M256.59,375.87c0,.13-4.19-7.07,1.25-7.19l3.93-3.41c.66-2.51,1.82-5,2.71-7.46l3.25,1.94c-.32.22.68,3.92,4.81,35.7.48,3.8.61,8.11,1.43,12.67.39,2.29.78,4.68,1.19,7.2l.31,1.91,0,.24,0,.13v.05c-20.64,1.25-5.73.33-10.33.58v-1.46l.07-4c-.07-11-2.29-23.93-5.23-39.54l-1.07-6-.13-.78c-2.54.16,21.93-1.83,11.58-.93v.1l0,.19,0,.37.11,1.53.21,3.08c.28,4.12.61,8.45,1.12,13,.89,9,2,18.81,2.47,29.5.25,5.48.16,10.65.25,16.25l0,2.09c-25.84,1.05-7.17.21-12.94.4l0-.12,0-.25,0-.5-.12-1.06-.46-4.17-.94-8.58c-1.41-11.66-3.05-24-4.59-37.31,0,0-.59-5.35-1.66-15.15l0-.45v-.12c28.75.72,8,.22,14.39.39v0l0,0V365l-.08.89-.15,1.88c-.1,1.28-.24,2.61-.33,4,0,2.86-.29,5.92-.21,9.34-.07,6.73.34,14.58.76,23.45,2.07,17.57-1.73,41.08,1.13,61.94l.37,2,.18,1v.05c-32.76-1.17-9.08-.37-16.39-.64l0-.13.08-.25.15-.52,1.18-4.17c.85-2.79,1.35-5.76,2.06-8.67,1.12-6,2.1-12.13,2.74-18.55,1.38-12.71,1.85-26.72,2.81-40.88,0,0,.22-3.18.32-9a98.68,98.68,0,0,0-.35-10.43,55.37,55.37,0,0,0-.83-6.33l-.3-1.69v-.1c-15.37.68,20.9-1.05,17.17-.84l0,.14,0,.27,0,.56a8.33,8.33,0,0,0,.27,2.73c2.82,9.89,5.2,25.7,7.06,41,1.05,7.47,2.2,16.76,3.05,25.25a59.87,59.87,0,0,0,2.48,11.67c3.64-.36-31.5,4.15-16.64,2.13l0-.19v-1.2l.06-1.61.08-3.24-.36-6.77c-2.31-18.08-6.38-40.86-7.35-63.62a65.22,65.22,0,0,1,.19-9.53,33.45,33.45,0,0,1,.75-5.13l.59-2.64.08-.32c32.1-1.4,9-.24,16.14-.47l.2.56.39,1.09a145.55,145.55,0,0,1,5.47,17.88c3,12.1,4.7,24.47,6.31,36.85,1.8,12.88,1.76,25.84,2.55,38.3.21,3.1.44,6.22.79,9.27.16,1.54.33,3.06.59,4.55l.34,2.26.17,1.15.1.55,0,.28c3.58,0-30.92,1.58-16.3.76.57-6.63,1.15-13.29,2.1-19.94a266.72,266.72,0,0,1,8.31-40c2-7,3.6-12.09,5.67-19.79a18.12,18.12,0,0,1,1.64-3.59l1.37-2,.74-1c24.76.69,7,.42,12.61.69l.26.41c1.41,2.19,3,4.72,3.38,6.56a74,74,0,0,1,2.64,10.76,321.7,321.7,0,0,1,4.77,41.24c.34,6.74.55,13.34,1.56,19.32l.79,4.49.1.55c13.83-2.44-18.79,3.72-15.47,2.92l-.07-.3-.22-1.22-.45-2.41-1.8-9.64c-6.11-25.71-11.28-53-13.8-78.47l-1.23-9.48-.08-.57c-13.43,2,18.26-3.09,15-2.39l0,.29.24,1.17.45,2.36.92,4.72,3.63,18.63c2.31,12.19,5,24.58,6.59,36.6.41,3,1.11,5.43,1.61,8.16.35,1.25.87,2.31,1.27,3.48l.61,1.7.3.88c-26.75.72-7.42.13-13.39.27l0-.1,0-.18c.75-2.32.13-10-.25-14.78-1-11-3-22-4.2-33.14-.93-11.11-1.38-21.59-1.75-31.64-.18-5-.42-9.89-.61-14.68,6.12-.86-13.69,1.57,13.71-2l.07.22.11.42.23.84.46,1.7.92,3.35,1.79,6.61c5.3,17.21,10.85,33.84,13.1,48.07.32,1.64.78,3,1.14,4.52l.77,1.89.37.92.18.47,0,.1c-24.51,4.22-6.8,1.1-12.25,2v-.25a43.67,43.67,0,0,0-.3-8.18c-.66-5.43-1.57-11.89-1.5-16.46-.2-9.78-.18-16.61-.08-20.45,0,0,0,7.94.36,22.6.2,3.6.67,8.1,1.31,12.22l.62,6.23L330,417.5v1.42c-10.39,1.79,14.12-2.31,11.56-1.93l-.54-1.38c-2.69-7.08-4.16-20.24-8.16-31.9-1.83-6-3.74-12.2-5.69-18.5-1-3.18-1.93-6.4-2.79-9.64l-1.33-4.92-.67-2.48-.09-.33c2.77-.45-24.29,3.23-12.83,1.76v.16l0,.67.06,1.3c.7,14.06.88,29,2.33,44.91,1.72,15.7,5.1,32,4.54,46.33,0,.85-.29.87-.27,1.39v.07c-2.75.13,24-.62,12.66-.38l-.12-.31-.22-.61-.42-1.2c-.53-1.68-1.4-3-1.66-5a110.86,110.86,0,0,1-2-11.63c-1.28-8.67-3-16.71-4.54-25l-4.78-24.75-1.19-6.18-.61-3.1,0-.18c-6.45.92,14.37-2.38-14.44,2l.05.39.08.77.22,1.55,1.55,12.34c1.89,16.56,4.31,33.17,7.74,49.16,1.73,8,3.43,15.67,5.1,23.19.78,3.76,1.41,7.46,2.11,11.13l.51,2.74.14.67,0,.35c-13.48,2.49,18.41-3.18,15.11-2.68l0-.15-.21-1.29-.89-5c-1.46-13.78-1.69-28.7-3.31-42.3-1.14-6.75-2-13.47-3.27-19.52a59.33,59.33,0,0,0-2.83-10.21l-1.7-3-.91-1.45-.47-.71c-5.44-.18,12,.17-12.22-.48l-.15.21-.3.42a18.8,18.8,0,0,0-3.39,6.28c-3,11.31-6,20.82-8.22,29.47a249.55,249.55,0,0,0-5.82,33.64s.81-7.91,3.46-21.7c1.34-6.9,3.51-15.43,6.2-24.59,1.3-4.56,3-9.73,4.19-14.6a30.64,30.64,0,0,1,1.85-5.15,32.24,32.24,0,0,1,2.17-3.19l.3-.37c-10.12-.34,13.94.19,11.5.22l.12.17.44.66.85,1.38c2.53,3.86,3,7.13,3.85,10.29a275.61,275.61,0,0,1,5.24,38.74c.59,7,.64,14.17,1.26,20.88a79.7,79.7,0,0,0,1.38,10l.22,1.24.07.32c-27.53,5-7.66,1.3-13.82,2.39l0-.18-.13-.66-.49-2.65-1-5.38c-6.51-28.47-12.66-61.53-15.68-93.11l0-.19c-11.35,1.71,15.43-2.57,12.69-2l.08.37.14.74.29,1.49.56,3,1.14,6,2.28,11.92,4.53,23.78c1.67,7.91,2.32,16.54,4,23.37a23.08,23.08,0,0,0,1.55,5l.86,2.39.11.3,0,.14c-21.53.55-6,.11-10.77.21l.07-.35.2-.67a53.06,53.06,0,0,0,0-10.42c-.82-14.83-4.16-29.92-4.91-44.74-.53-7.32-.74-14.46-1-21.36-.11-3.45-.22-6.86-.37-10.18l-.19-5-.09-2.46v-.15c-2.24.2,19.34-2.52,10.23-1.28l.07.27.17.61.3,1.16c6.62,24.3,14.57,47.23,16.93,63.5a26.73,26.73,0,0,0,1,2.57l.47,1.24.07.15c-3.7.64,8.35-1.34-8.3,1.46v-.08l0-.34v-.65a39.65,39.65,0,0,0,0-5.1c-.27-3.34-.66-6.61-1-9.49a89.11,89.11,0,0,1-.5-12.62,134.74,134.74,0,0,0,1.8,20.9,23.3,23.3,0,0,1,.2,4.83l0,2.51v.07c-1.63.34,14.13-2.39,7.44-1.28l0-.14-.13-.31-.24-.57-.5-1.21c-1.35-3.26-2.1-7.32-2.91-11.93-2-9.48-5-19.59-8.46-30.65-1.66-5.48-3.6-11.19-5.12-17.12l-1.2-4.47-.63-2.26-.15-.57-.08-.28c7.55-1-10.33,1.23-8.48,1.07v.16l.06,1.19.43,9.71c.56,13.21.82,27.22,2.71,42,1.71,14,5.1,30.51,3.45,42.56l0,.21c-7.61.22,10.36-.13,8.47-.19l-.05-.15-.21-.61-.45-1.2-.9-2.42a22.92,22.92,0,0,1-1.38-5.17c-.86-3.48-1.3-7.38-1.88-11.18-1.22-8.11-2.84-15.58-4.33-23.39l-4.51-23.25-1.15-5.83-.56-2.91-.29-1.43-.13-.72-.07-.37c2.09-.44-18.33,2.76-9.69,1.51l0,.17,1.51,11.65c1.85,15.57,3.8,31.09,7,46.26s6.76,29.41,9.11,43.17l.13.65.08.34c19.81-3.64,5.47-1.11,9.9-2l0-.16-.21-1.22-.44-2.44c-.27-1.64-.67-3.21-.79-4.89-.27-3.39-.68-6.59-.79-10-.34-6.83-.77-13.36-1.42-19.86a209.56,209.56,0,0,0-6-36.3,17.83,17.83,0,0,0-1.91-4.58l-1.41-2.31-.35-.55-.1-.15c1.62,0-14.29-.4-7.62-.16l-.22.31-.89,1.26c-2.24,3.41-2.57,6.37-3.17,8.61-1.17,4.44-2.59,9.19-3.73,13.3a212.27,212.27,0,0,0-7.09,34.72c.08,0,.93-7,3.7-19.1,1.51-6.19,3.52-13.31,6-21.63,1.52-4.34,1.94-7.89,4.16-13.7a14.57,14.57,0,0,1,1.4-2.15l.37-.55.21-.28.1-.13c-5.2-.17,7.19.1,5.94.13l.61,1a24,24,0,0,1,2.21,4.13,49.42,49.42,0,0,1,2.17,8.15,271,271,0,0,1,4.54,34.55c.46,6,.77,12.54,1.07,18.83.34,3.13.34,6.4,1,9.49l.82,4.72.2,1.19,0,.15c-2.89.56,6.53-1.06-6.5,1.31l0-.3-.12-.61-.45-2.47c-5-26.12-12.32-54.92-14.79-84.31l-1.35-10.95-.35-2.72-.08-.7,0-.16c2.29-.4-5.15.63,5.11-.93l.07.35.25,1.35,1,5.47,4.13,21.76c3,14.29,5.12,29.23,7.65,43a35.91,35.91,0,0,0,1.64,4.86l.88,2.4.11.3c-7.08.18-1.94,0-3.52,0l0-.14.14-.54.31-1.06a53.06,53.06,0,0,0,.15-10.12c-.35-6.88-1.14-13.68-2.05-20.38a300.86,300.86,0,0,1-3.5-38.74c-.26-6.17-.39-12.13-.61-17.89.8-2.63-2.2-6.29,1.71-7.91l2.1,7.89c2.73,10.33,5.81,19.66,8.16,28s4.33,15.68,5.12,21.85a82,82,0,0,0,1.75,8.13c.38,1.16.84,2.2,1.19,3.18.45.34-.2,1.3,1.12,1.05l.08-1.33c1,3.48-3.48-1.83-4.26-10.23-1.26-8.26-4.46-19.23-8-30.82-1.73-5.81-3.72-11.74-5.3-17.65l-2.37-8.75c-.5-2.66-1.17-.17-.74,1.2l.19,4.28c.44,11.18.88,20.76,1.27,26.44l-.61-19.84-.3-9.93-.08-2.47c-.29-.38.61-1-.69-1.14l.31,1.21,1.26,4.81-1.07-3.87-.54-1.93c1.56-.45.48,1,.87,1.44l.36,8,.7,16a303.32,303.32,0,0,0,2.8,31.84c1.61,12.15,3.54,24.46,2.86,36.73,1.2,0-1-25-4.22-50.64-.91-12.89-1-26.07-1.25-36.44-.06-2.57-.11-5-.17-7.19v-.07c-1.41.19,3.2-.45-3.18.42h0l0,.11,0,.2.1.4.19.77.37,1.48.64,2.7c.82,3.32,1.35,5.64,1.48,6.51-.07,0,3.62,10.91.47.13-.35-1.36-.8-3.08-1.36-5.18-.29-1.06-.61-2.21-.94-3.48l-.52-2-.29-1-.14-.55,0-.08c6.19-.82,1.71-.2,3.09-.38v.18l0,.28c.27,6.15.59,14.25,1.05,24.78a305.72,305.72,0,0,0,3.9,39.3A202.66,202.66,0,0,1,325,440.12a29.07,29.07,0,0,1-.15,3.8,9.68,9.68,0,0,1-.4,2l-.29,1-.15.5c2.43-.05-3.34.23-2.76.14l0-.11-.1-.24c-.88-2.43-2-4.91-2.73-7.49-1.27-5.18-2.1-10.64-2.95-16.17,0,0-.94-6.54-3.43-19.27-1.19-6.38-2.67-14.29-4.46-23.65-.45-2.36-.9-4.8-1.39-7.34l-.72-3.85-.39-2c4.07-.4,1.27,1.05,2.26,1.49.69,5.49,1.43,11.34,2.15,17.56,1.41,12.42,3.37,26.26,6.4,41.32q2.44,11.27,5.18,23.58c1,4.09,1.64,8.33,2.47,12.64l.61,3.23.29,1.63.09.4c-2.1.28-.61-.15-1.12-.2l-.13-.82-1.18-6.68c-1.78-18.11-1.65-37.63-5.92-58-.9-5-2.23-10.56-4.31-14.77-3.11,4.21-3.32,10.11-5.24,15.24a291.8,291.8,0,0,0-8.15,33.08c-1,5.75-1.92,11.57-2.57,17.53-.43,3-.7,6-.94,9l-.39,4.54-.2,2.27c-2-.56-.77-1.46-1.32-2.17-2.09-12.18-2.24-24.82-3-37.65s-2.69-25.89-5-39.15a192.88,192.88,0,0,0-4.58-19.86c-1-3.31-2-6.61-3.28-9.83l-.9-2.44c3.14-.23.56,1.35,1.13,2a34.41,34.41,0,0,0-.68,5.1c-.16,13.78,1.72,28.28,3.5,42.62,1.18,7.19,2.52,14.46,3.55,21.88.47,3.72.91,7.46,1.06,11.29a46.15,46.15,0,0,1,.08,5.72l0,2.88,0,.72c-1.28.2,2.86,0-2.89.57l-.1-.37-.4-1.4c-4.06-15.23-4.31-30.43-7.12-46-1.13-7.76-2.36-15.62-4.09-23.26-.93-3.74-2.31-7.73-2.54-12.15l0-1.67v-.84c-3.88,0,5.26-.56,4.35-.29l.08.38.56,3.07c.45,2.05.57,4.12.83,6.18,1.33,16.65-.72,32.9-1.28,49.72-.55,8.4-1.34,16.87-2.68,25.38-.63,4.28-1.51,8.53-2.5,12.79-.47,2.14-1.14,4.23-1.72,6.37l-.44,1.59-.12.39c1.36.3-12.18-.36-6.49-.31l-.16-.82-.65-3.34c-3-17.92.25-35.4-.86-52.74-.32-8.78-.92-17.71-1.12-26.78-.08-4.54-.15-9.12.07-13.75.06-2.31.19-4.63.42-7l.31-3.48,0-.45c-2-.34,17.82.61,9.45.42l.08.86.18,1.68c1.63,17.92,4.59,36.1,6.73,54.77l.81,7,.2,1.74.1.88c-5.1.34,11.49-.1-11.41.86v-.42l0-3.53c-.11-4.62-.06-9.51-.33-14-.45-9.16-1.5-18.42-2.54-28q-.83-7.12-1.34-14.51l-.29-3.68-.06-.92,0-.48c-12.16.9,16.51-1.81,13.59-1.25l.33,1.75,1.32,7.07c1.79,9.46,3.71,19.2,4.65,29.39a125.32,125.32,0,0,1,.5,15.56c-6.9.49,15.43-.39-15.46,1.2l-.09-.46-.15-1-.32-1.9-.64-3.82c-.39-2.54-1-5.1-1.2-7.62C259.23,394.53,258.47,385.76,256.59,375.87Z" fill="#e6e4e3"/></svg>