<svg id="Layer_1" data-name="Layer 1" xmlns="http://www.w3.org/2000/svg" viewBox="0 0 512 512"><title>photo</title><path d="M202.86,193.84s4,17.65-4,1.73l-6.34-1.51-4.74-3.65-1.07-.59c.44.5-5.65-39.5,16.41-60.31-.06.15,11.83-13.57,23.18-16.92-.32.25,27.27-10.88,56,2.33,14.13,6.18,28.1,21.2,36.26,32.47,8.36,11.11,12.35,21.14,12.56,24.23.07.17-8.4-20-23.31-34.89-14.55-15.43-33.7-22-35.92-20.73a84.18,84.18,0,0,1,30.84,19.67c14.38,13.72,23.22,34,22.7,38.2,0,.19-7.66-17.45-20.94-30.08-13-13.22-30-18.28-33-14.84A73.59,73.59,0,0,1,296.33,146c11.61,11.57,19,28.7,18.45,34.1.2-.11-4.59-11.29-7.08-12.75.72,1.85,1.32,3.82,1.94,5.66-1.56-2.24-3.22-4.38-5-6.42-.7-1.65-1.54-3.16-2.35-4.72.29-.13,5.85,13.38,4.66,16-.29.44,5.74,1-9.68-13.36.08.61-7.91-6.38-28.17-11.36-9.87-2.3-22.58-1-35.13,6.79C221.57,167.57,210.14,173.93,202.86,193.84Z" fill="#e6e4e3"/><path d="M244.58,108.65s2.71-4.46,2.63,2.84l1.11,5.85c.84,1.43,1.64,2.86,2.42,4.32l-.78,4.23a113,113,0,0,0-11.26,1.49c-4.66,1-11.54,2.55-19,7.69-7.34,5.11-15.07,14.65-17.09,30.72a81.19,81.19,0,0,0,.34,17.36,118.48,118.48,0,0,0,13.63,42,93.28,93.28,0,0,0,5.75,9.27c4,5.51,10.42,13.36,19.68,18.17a28,28,0,0,0,31.3-3c10.46-8.31,18.62-24,23.16-40.39s5.93-34.48,2.47-49.52c-3-14.76-13.79-24.92-24.67-29.57-11.12-4.51-23-3.66-31.91-2.51s-15.33,2.87-17.87,3.23a141.53,141.53,0,0,1,25.75-4.57c15.38-1.56,34.64,3.58,44.82,21.64,8.36,15.72,6.87,40.3,2.94,56.24-3.9,16.73-10,27.26-10.92,29.54a104.55,104.55,0,0,0,9.77-22.6c4.38-14.23,7.87-35.69,2.79-54.78a46.82,46.82,0,0,0-2.37-6.69l-.72-1.59-.18-.39,0-.1c.09.19-.29-.48.23.39l0,0-.13-.21-.48-.77c-.65-1-1.29-2.09-2-3.06a47.29,47.29,0,0,0-9.48-10.2c-7-5.63-15.45-8.25-23.34-9.09-16-1.46-28.65,2.06-31.76,2a120.84,120.84,0,0,1,24.41-3.42c14.59-1,33.68,5.22,43.88,22.92,8.89,16.16,7.78,39.54,4.66,55.62-3.13,16.68-8.57,28.07-9.51,31.49a111.1,111.1,0,0,0,8.86-21.42c4-13.43,7.6-33.07,3.91-52.32-2.82-19.51-19.31-34.75-34.9-38.75-15.84-4.16-29-1.56-33.49-1.65a113.85,113.85,0,0,1,15.37-1.43A76.3,76.3,0,0,1,273.34,120a57.79,57.79,0,0,0-13.14-3,54.68,54.68,0,0,1,21.11,5.22,49.25,49.25,0,0,1,10.19,7.46A52.44,52.44,0,0,0,277,119.9c-8.2-3.84-17.71-4.75-18.9-5.29,0,0-4,.31-.08.57A84.37,84.37,0,0,1,271.15,117c7,1.71,18.24,5.53,28.69,18-.45,0,7.52,7.23,10.6,24.93,3,17.22,2.37,44.19-11.29,73.84-6.89,14-18.28,31.26-38.45,34.52-20.21,3.65-40.55-10.87-53.07-29.7-12.79-19.06-22-43.29-20.84-70.78.76-13.53,5.12-28.65,16-40.22C213.63,115.88,229.53,110.14,244.58,108.65Z" fill="#e6e4e3"/><path d="M215.46,261.16s-4,1.21,2.7-1l5.38-1.87,3.9-1.49,4-1.27c-.1.05,1.48,0,5,6a8.73,8.73,0,0,1,2.95,5.89,62.46,62.46,0,0,1-1.22,12.32c-1.13,5.92-2.92,11.34-4.25,12,.05.19,5.27-13.05,4.07-14.36.16.27-4.31,13.06-6.73,13.53.06.14,4.92-12,2-13.58.13.13-4.24,11.26-7.35,12.1,0,0,1.43-2,1.17-2.63l-1,.87.31-1.58.77-.84s-2.25,2.26-3.28,2.29c0,0,1.07,1.31,1.17-3.28a11.9,11.9,0,0,0,2.19-7.21A16.52,16.52,0,0,0,215.46,261.16Z" fill="#e6e4e3"/><path d="M273.32,250.75s-4-1.27,2.84.46l5.54,1.31,4.09.79,4,1.09s.9.93,2.2,7.28a10.35,10.35,0,0,1,1.65,5.93c-.71-.23-1.73,23.8-3.32,26.16-.22-.14,2.37-15.67,1.55-16.51-.3-.12-2.47,14.74-4.31,16.29-.22-.08,2.19-14.78-.42-16-.24-.1-2.69,13.65-5.13,15.77,0,0,.82-2.79.45-3.49l-.77,1.34,0-2,.57-1.21s-1.77,3.33-2.69,3.67c0,0,1.25,1.35.41-4.41a23.72,23.72,0,0,0,1.17-9.43C280.92,271.65,278.76,263.75,273.32,250.75Z" fill="#e6e4e3"/><path d="M226.32,276.29s1.42-4.19.39,3l-.45,5.82.16,4.35-.82,4.15c.19.55-2.55-.53-22.32,3,0,.15-7.71,2.87-16.65,6.72.18-.13-17.48,6.41-26.42,24.56-9.59,17.5-9.73,40.86-10.81,43.86a119.1,119.1,0,0,1,3.66-26c3.11-12.8,10.17-23.23,10.6-24.62a72,72,0,0,0-10.78,21.07c-4.14,11.95-5.18,25.85-6.26,27.82a138.36,138.36,0,0,1,3.43-24.89c2.79-12.46,9.07-23.45,9.17-25.89a79.18,79.18,0,0,0-10.69,20.28c-4.29,11.42-6,24.76-7.4,27.65-.11,0,1.34-9.14,1.33-11.56l-1.2,4.17c.22-2.27.38-4.56.73-6.85l1.14-3.84c-.1-.05-3.23,10.45-4.11,11.24.34,0,.2,5,2.44-14.61.36.17,2.44-11.74,12.31-29.2a75.7,75.7,0,0,1,25.25-26C191.21,282.85,207.67,277.88,226.32,276.29Z" fill="#e6e4e3"/><path d="M288.14,299.32s-.1,4.37-1-2.85L286,290.73l-1.36-4.12-.36-4.26c.21.66,1.33-3.2,25.82-4.33a47.1,47.1,0,0,1,23.6,3.6,71,71,0,0,1,14,8.31c8,5.8,17,16.15,22.37,28.2,11.33,24.42,8.7,50.94,7.47,54.13a127.7,127.7,0,0,0-.76-30.45c-2-15.8-10.32-31.22-12.12-32.4A86.44,86.44,0,0,1,375,338c2.74,15,1.06,30.2-.08,32.23-.13,0,1.4-13.45-1.09-27.74-2.1-14.37-9.64-28.3-12.39-29.35a79.4,79.4,0,0,1,8.42,24.51c2.36,13.06,1,26.71-.44,29.56.07,0,.94-9.19.25-11.63l-.54,4.34c-.13-2.29-.24-4.57-.48-6.84l.16-4c.12,0-.7,10.87-1.83,11.6-.31.05,2.15,4.65-.86-14.15-.35.29,1-12.19-9.31-29.34-5.22-8.23-14.26-17.07-26.81-21C317.56,292,302.43,293.07,288.14,299.32Z" fill="#e6e4e3"/><path d="M2.43,36.69S-5.79,34.24,8,34.4l11.08-1L27.24,31l8.07.7s2.31,6.4,6.92,77.54a462.44,462.44,0,0,1,4.62,66.86s-2.38,278.33-7.25,299.25c0,0,7-174.53,4.74-185.53,0,0-5.69,166.9-10.1,179.7,0,0,6.52-161.88.88-176.3,0,0-6,149-11.61,167.06,0,0,2.24-28.59,1.56-36.24l-1.7,13.33.23-21.46,1.29-12.4s-3.85,33.59-5.81,35.93c0,0,2.34,15.32,1.47-45.3C20.55,394.13,34.15,250.75,2.43,36.69Z" fill="#e6e4e3"/><path d="M28,47s-2.95,8.46-2.76-5.75L24.08,29.89l-2.94-8.35.86-8.3s1.93-.6,14.6-1.78c1.59-.13,3.34-.31,5.28-.47l3-.26h.22c0-5.94,0,51.67,0,27.27l.06,0h0l-.4,0-.83.06-1.7.14c-4.65.38-10.1.78-16.5,1.22l-10.33.71-5.73.37-.37,0H9.35c0,29,0-39.46,0-32.43h.29l.74,0L11.88,8,15,7.79c8.43-.5,18-1.07,28.68-1.66,0,0,34.36-4.73,80.74-4.73,0,0,336.16,2.45,361.43,7.45,0,0-210.77-7.14-224.07-4.87,0,0,201.57,5.85,217,10.38,0,0-195.52-6.72-212.92-.92,0,0,180,6.18,201.76,11.92,0,0-34.54-2.3-43.76-1.59L440,25.5l-25.91-.24-15-1.33s40.56,4,43.39,6c0,0,18.5-2.4-54.7-1.49,0,0-43.29-3.5-118.91-2.92-37.81.3-83.68,1.61-136.28,4.89-26.29,1.65-54.27,3.75-83.75,6.5Q37.8,37.89,26.46,39L15.05,40.21l-2.87.3-1.44.16-.72.08-.37,0-.18,0c0-14.69-.14,32.89-.16-32.9l5.8-.63Q26.72,6,38.59,4.62l5.94-.7.76-.1c0,18.35-.11-41.08-.16,41.11l-.19,0-.37,0-1.49.18-3,.37Z" fill="#e6e4e3"/><path d="M467.59,31.8s-8.23-2.53,5.6-2.38l11.08-1,8.12-2.56,8.05.75s2.33,6.69,6.93,81A503.54,503.54,0,0,1,512,177.53s-2.38,291-7.25,312.86c0,0,7-182.46,4.74-194,0,0-5.69,174.48-10.1,187.87,0,0,6.53-169.24.89-184.31,0,0-6,155.79-11.61,174.65,0,0,2.24-29.91,1.56-37.9l-1.7,13.94.24-22.44,1.3-13s-3.85,35.13-5.82,37.57c0,0,2.33,16,1.47-47.35C485.71,405.51,499.3,255.6,467.59,31.8Z" fill="#e6e4e3"/><path d="M26.83,509.5s-2.54,8.47-2.38-5.74l-1-11.39L20.91,484l.74-8.28s6.66-2.39,80.59-7.14a487.36,487.36,0,0,1,69.48-4.73s289.27,2.45,311,7.46c0,0-181.37-7.14-192.81-4.88,0,0,173.46,5.85,186.77,10.38,0,0-168.24-6.71-183.21-.93,0,0,154.87,6.18,173.62,11.95,0,0-29.72-2.31-37.67-1.6L443.27,488l-22.32-.24-12.86-1.3s34.9,3.95,37.31,6c0,0,15.94-2.41-47-1.51C398.36,490.88,249.32,476.91,26.83,509.5Z" fill="#e6e4e3"/><path d="M67.6,86.76s-2.12,5.94-2-4.06l-.85-8-2.11-5.87L63.28,63s5.55-1.66,67.18-5a479.34,479.34,0,0,1,57.94-3.34s241.22,1.73,259.34,5.25c0,0-151.24-5-160.77-3.44,0,0,144.63,4.12,155.74,7.3,0,0-140.3-4.71-152.77-.64,0,0,129.16,4.35,144.76,8.39,0,0-24.77-1.62-31.4-1.12l11.55,1.23-18.6-.18-10.74-.93s29.11,2.78,31.14,4.19c0,0,13.26-1.68-39.25-1.06C377.41,73.67,253.13,63.84,67.6,86.76Z" fill="#e6e4e3"/><path d="M417.34,65.8S412,64.11,421,64.22l7.2-.69,5.29-1.7,5.25.5s1.51,4.47,4.51,54.09a344.69,344.69,0,0,1,3,46.64s-1.55,194.17-4.72,208.76c0,0,4.52-121.74,3.09-129.43,0,0-3.72,116.43-6.58,125.39,0,0,4.25-113,.58-123,0,0-3.91,104-7.57,116.55,0,0,1.45-20,1-25.29L431,345.32l.15-15,.84-8.63s-2.51,23.43-3.79,25.06c0,0,1.51,10.69,1-31.61C429.15,315.17,438,215.14,417.34,65.8Z" fill="#e6e4e3"/><path d="M81.28,392.17s-2.1,5.12-2-3.46l-.85-6.88-2.1-5,.61-5s5.52-1.41,66.92-4.28a550.6,550.6,0,0,1,57.69-2.87s240.21,1.47,258.24,4.5c0,0-150.59-4.33-160.1-3,0,0,144,3.53,155.1,6.28,0,0-139.71-4.06-152.15-.56,0,0,128.6,3.72,144.17,7.2,0,0-24.67-1.38-31.27-1l11.49,1.05L408.56,379l-10.7-.79s29,2.39,31,3.59c0,0,13.23-1.44-39.08-.9C389.78,380.93,266,372.49,81.28,392.17Z" fill="#e6e4e3"/><path d="M64.61,75.71s-4.27-1.77,2.9-1.64l5.74-.73,4.2-1.75,4.18.53s1.2,4.62,3.59,56.11a465,465,0,0,1,2.39,48.38S86.38,378,83.86,393.18c0,0,3.6-126.3,2.46-134.26,0,0-2.95,120.8-5.23,130.07,0,0,3.38-117.18.46-127.61,0,0-3.11,107.86-6,120.9,0,0,1.17-20.68.8-26.23l-.88,9.66.12-15.54.67-9s-2,24.31-3,26c0,0,1.22,11.07.76-32.8C74,334.42,81,230.65,64.61,75.71Z" fill="#e6e4e3"/><path d="M214.26,291.72s42,55.85,89.41,0l44.05-1.79L366.61,325l0,42.89-221,3.85,14.54-43.86,14.11-34.11Z" fill="#e6e4e3"/></svg>